<?xml version="1.0" encoding="UTF-8" standalone="no"?>
<!-- Creator: CorelDRAW X5 -->

<svg
   style="fill-rule:evenodd;text-rendering:geometricPrecision;image-rendering:optimizeQuality;clip-rule:evenodd;shape-rendering:geometricPrecision"
   xml:space="preserve"
   viewBox="0 0 8487 8487"
   version="1.1"
   id="svg1786"
   sodipodi:docname="qbnew.svg"
   inkscape:version="1.2.2 (b0a8486541, 2022-12-01)"
   inkscape:export-filename="qbnew.png"
   inkscape:export-xdpi="96"
   inkscape:export-ydpi="96"
   xmlns:inkscape="http://www.inkscape.org/namespaces/inkscape"
   xmlns:sodipodi="http://sodipodi.sourceforge.net/DTD/sodipodi-0.dtd"
   xmlns="http://www.w3.org/2000/svg"
   xmlns:svg="http://www.w3.org/2000/svg"
   xmlns:rdf="http://www.w3.org/1999/02/22-rdf-syntax-ns#"
   xmlns:cc="http://creativecommons.org/ns#"
   xmlns:dc="http://purl.org/dc/elements/1.1/"><sodipodi:namedview
   id="namedview1788"
   pagecolor="#ffffff"
   bordercolor="#000000"
   borderopacity="0.25"
   inkscape:showpageshadow="2"
   inkscape:pageopacity="0.0"
   inkscape:pagecheckerboard="0"
   inkscape:deskcolor="#d1d1d1"
   showgrid="false"
   inkscape:zoom="0.072355631"
   inkscape:cx="4415.6895"
   inkscape:cy="3427.5149"
   inkscape:window-width="1920"
   inkscape:window-height="1011"
   inkscape:window-x="0"
   inkscape:window-y="0"
   inkscape:window-maximized="1"
   inkscape:current-layer="Layer_x0020_1" />
 <defs
   id="defs1779">
  <style
   type="text/css"
   id="style1777">
    .fil0 {fill:black}
  </style>
 </defs>
 <g
   id="Layer_x0020_1">
  
 <rect
   style="fill:#ffffff;stroke-width:1.00306"
   id="rect2579"
   width="8514.752"
   height="8545.4189"
   x="-11.769737"
   y="-11.488785"
   ry="0" /><path
   class="fil0"
   d="m 4441.7083,1984.2576 v 183.9741 c 418.531,44.9894 800.5623,208.879 1111.2161,456.3203 l 138.6993,-137.3781 c 52.7219,-110.8666 139.5103,-232.177 252.2542,-345.4537 265.2318,-265.1156 576.6968,-386.4261 695.1184,-269.9359 118.4216,116.4902 -0.8111,425.7917 -266.043,690.9073 -116.7994,117.2936 -243.332,205.6655 -357.6981,258.6886 l -131.3992,130.1477 c 249.8208,308.4982 415.2866,686.8905 460.7086,1100.6315 h 195.4767 c 116.7993,-41.7758 264.4208,-66.6806 425.0199,-67.484 377.1646,-1.6067 682.9518,130.9511 683.7629,295.6441 0.8111,165.4964 -304.165,300.4644 -681.3296,302.0711 -166.2769,0.8034 -318.7649,-24.9048 -437.1865,-67.4839 h -185.7434 c -45.422,414.5444 -210.8878,792.9367 -460.7086,1100.6315 l 138.6992,137.3781 c 111.9327,52.2197 234.4098,138.1814 348.7759,249.8513 267.6652,262.7055 390.1423,571.2037 272.5318,688.4973 -117.6104,117.2935 -429.8865,-0.8034 -697.5517,-263.5089 -118.4216,-115.6868 -207.6433,-241.0142 -261.1764,-354.2909 l -131.3993,-130.1476 c -311.4649,247.4412 -693.4962,411.3309 -1111.2161,456.3202 v 193.6147 c 42.1775,115.6868 67.3218,261.9021 68.1329,420.9715 1.6222,373.572 -132.2104,676.4465 -298.4872,677.2499 -167.088,0.8034 -303.3539,-301.2678 -304.9762,-674.8398 -0.8111,-164.693 25.1444,-315.7286 68.133,-433.0221 v -183.9742 c -418.531,-44.9893 -800.5623,-208.879 -1111.2162,-456.3202 l -138.6992,137.3781 c -52.7219,110.8665 -139.5104,232.177 -252.2542,345.4536 -265.2319,265.1157 -576.6969,386.4261 -695.1184,269.936 -118.4216,-116.4902 0.8111,-425.7918 266.043,-690.9074 116.7993,-117.2936 243.332,-205.6655 357.698,-258.6886 l 131.3993,-130.1477 C 2283.3533,5307.8434 2117.8876,4929.4511 2072.4656,4515.71 h -195.4767 c -116.7994,41.7758 -264.4208,66.6806 -425.0199,67.484 -377.1646,1.6068 -682.95186,-130.951 -683.76297,-295.6441 -0.81111,-165.4964 304.16497,-300.4643 681.32967,-302.0711 166.2768,-0.8034 318.7649,24.9048 437.1865,67.484 h 185.7434 c 45.422,-414.5444 210.8877,-792.9367 460.7086,-1100.6315 L 2394.475,2814.9532 c -111.9328,-52.2198 -234.4099,-138.1815 -348.7759,-249.8514 -267.6652,-262.7055 -390.1424,-571.2037 -272.5319,-688.4972 117.6105,-117.2936 429.8866,0.8033 697.5518,263.5088 118.4216,115.6868 207.6433,241.0142 261.1763,354.2909 l 131.3993,130.1477 c 311.465,-247.4413 693.4963,-411.3309 1111.2162,-456.3203 V 1974.617 c -42.1775,-115.6868 -67.3219,-261.9021 -68.133,-420.9715 -1.6222,-373.572 132.2104,-676.44648 298.4873,-677.24988 167.088,-0.8034 303.3539,301.26778 304.9761,674.83978 0.8111,164.693 -25.1443,315.7286 -68.1329,433.0222 z m -234.4099,288.4136 c 1122.5717,0 2032.6334,901.3931 2032.6334,2013.272 0,1111.8788 -910.0617,2013.2719 -2032.6334,2013.2719 -1122.5716,0 -2032.6334,-901.3931 -2032.6334,-2013.2719 0,-1111.8789 910.0618,-2013.272 2032.6334,-2013.272 z m 0,75.5178 c 1080.3941,0 1956.3894,867.6511 1956.3894,1937.7542 0,1070.103 -875.9953,1937.7541 -1956.3894,1937.7541 -1080.3941,0 -1956.3893,-867.6511 -1956.3893,-1937.7541 0,-1070.1031 875.9952,-1937.7542 1956.3893,-1937.7542 z m 234.4099,436.2357 v 725.4527 c 54.3441,16.0677 106.2549,36.9556 154.9213,63.4671 l 517.4861,-512.5568 c -194.6656,-141.395 -423.3977,-238.6041 -672.4074,-276.363 z m 1003.3389,604.1423 -517.486,512.5568 c 26.7665,48.2029 47.8553,99.6192 64.0774,153.4457 h 732.4293 c -38.122,-246.6378 -136.2659,-473.1912 -279.0207,-666.0025 z m 279.0207,1129.5532 h -732.4293 c -16.2221,53.8265 -37.3109,105.2428 -64.0774,153.4457 l 517.486,512.5568 c 142.7548,-192.8113 240.8987,-419.3647 279.0207,-666.0025 z m -609.9522,993.7819 -517.4861,-512.5569 c -48.6664,26.5116 -100.5772,47.3995 -154.9213,63.4671 v 725.4527 c 249.0097,-37.7589 477.7418,-134.9679 672.4074,-276.3629 z m -1140.416,276.3629 v -725.4527 c -54.3442,-16.0676 -106.255,-36.9555 -154.9214,-63.4671 l -517.4861,512.5569 c 194.6656,141.395 423.3977,238.604 672.4075,276.3629 z m -1003.339,-604.1423 517.4861,-512.5568 c -26.7665,-48.2029 -47.8553,-99.6192 -64.0774,-153.4457 H 2691.34 c 38.122,246.6378 136.2659,473.1912 279.0207,666.0025 z M 2691.34,4054.5695 h 732.4294 c 16.2221,-53.8265 37.3109,-105.2428 64.0774,-153.4457 L 2970.3607,3388.567 c -142.7548,192.8113 -240.8987,419.3647 -279.0207,666.0025 z m 609.9522,-993.7818 517.4861,512.5568 c 48.6664,-26.5115 100.5772,-47.3994 154.9214,-63.4671 v -725.4527 c -249.0098,37.7589 -477.7419,134.968 -672.4075,276.363 z m 906.0062,610.5693 c 343.0982,0 621.3078,275.5595 621.3078,615.3895 0,339.8301 -278.2096,615.3896 -621.3078,615.3896 -343.0981,0 -621.3077,-275.5595 -621.3077,-615.3896 0,-339.83 278.2096,-615.3895 621.3077,-615.3895 z m 0,92.3887 c 291.9984,0 528.8416,234.5872 528.8416,523.8042 0,289.2171 -236.8432,523.8042 -528.8416,523.8042 -291.9984,0 -528.8415,-234.5871 -528.8415,-523.8042 0,-289.217 236.8431,-523.8042 528.8415,-523.8042 z"
   id="path1781"
   style="clip-rule:evenodd;fill:#000080;fill-rule:evenodd;stroke-width:0.807234;image-rendering:optimizeQuality;shape-rendering:geometricPrecision;text-rendering:geometricPrecision" /></g>
<metadata
   id="metadata1784"><rdf:RDF><cc:Work><dc:format>image/svg+xml</dc:format><dc:type
         rdf:resource="http://purl.org/dc/dcmitype/StillImage" /><cc:license
         rdf:resource="http://creativecommons.org/publicdomain/zero/1.0/" /><dc:publisher><cc:Agent
           rdf:about="http://openclipart.org/"><dc:title>Openclipart</dc:title></cc:Agent></dc:publisher><dc:date>2012-01-25T14:38:02</dc:date><dc:description>Captains ship wheel</dc:description><dc:source>https://openclipart.org/detail/167462/ship-wheel-by-thebyteman</dc:source><dc:creator><cc:Agent><dc:title>TheByteMan</dc:title></cc:Agent></dc:creator><dc:subject><rdf:Bag><rdf:li>ship</rdf:li><rdf:li>ship wheel</rdf:li><rdf:li>wheel</rdf:li></rdf:Bag></dc:subject></cc:Work><cc:License
       rdf:about="http://creativecommons.org/publicdomain/zero/1.0/"><cc:permits
         rdf:resource="http://creativecommons.org/ns#Reproduction" /><cc:permits
         rdf:resource="http://creativecommons.org/ns#Distribution" /><cc:permits
         rdf:resource="http://creativecommons.org/ns#DerivativeWorks" /></cc:License></rdf:RDF></metadata></svg>
