<?xml version="1.0" encoding="UTF-8" standalone="no"?>
<!-- Created with Inkscape (http://www.inkscape.org/) -->

<svg
   width="400mm"
   height="400mm"
   viewBox="0 0 400 400"
   version="1.1"
   id="svg5"
   inkscape:version="1.2.2 (b0a8486541, 2022-12-01)"
   sodipodi:docname="next_centrum.svg"
   inkscape:export-filename="next_centrum.png"
   inkscape:export-xdpi="96"
   inkscape:export-ydpi="96"
   xmlns:inkscape="http://www.inkscape.org/namespaces/inkscape"
   xmlns:sodipodi="http://sodipodi.sourceforge.net/DTD/sodipodi-0.dtd"
   xmlns="http://www.w3.org/2000/svg"
   xmlns:svg="http://www.w3.org/2000/svg">
  <sodipodi:namedview
     id="namedview7"
     pagecolor="#ffffff"
     bordercolor="#000000"
     borderopacity="0.25"
     inkscape:showpageshadow="2"
     inkscape:pageopacity="0.0"
     inkscape:pagecheckerboard="0"
     inkscape:deskcolor="#d1d1d1"
     inkscape:document-units="mm"
     showgrid="false"
     inkscape:zoom="0.47894483"
     inkscape:cx="1157.7534"
     inkscape:cy="724.50933"
     inkscape:window-width="1920"
     inkscape:window-height="1011"
     inkscape:window-x="0"
     inkscape:window-y="0"
     inkscape:window-maximized="1"
     inkscape:current-layer="layer1" />
  <defs
     id="defs2" />
  <g
     inkscape:label="Layer 1"
     inkscape:groupmode="layer"
     id="layer1">
    <ellipse
       style="fill:#000000;stroke-width:0.463973"
       id="path1992"
       cx="201.10374"
       cy="199.85088"
       rx="155.87802"
       ry="151.21481" />
    <path
       sodipodi:type="spiral"
       style="fill:#ffffff;fill-rule:evenodd;stroke:#000000;stroke-width:0.264583"
       id="path2157"
       sodipodi:cx="17.155529"
       sodipodi:cy="45.333759"
       sodipodi:expansion="1"
       sodipodi:revolution="3"
       sodipodi:radius="90.484245"
       sodipodi:argument="-18.277666"
       sodipodi:t0="0"
       d="m 17.155529,45.333759 c 3.814849,2.455382 -1.427694,6.35374 -4.081006,6.34053 C 5.8842099,51.638493 2.8762961,43.090695 4.4744688,37.171747 7.3332248,26.584137 19.875049,22.697182 29.398548,26.312169 43.374665,31.617307 48.250421,48.6129 42.517649,61.657785 34.876767,79.044564 13.288467,84.928441 -3.2495028,77.03641 -24.06085,67.105095 -30.960082,40.865586 -20.887652,20.847721 -8.6885892,-3.396595 22.232185,-11.314964 45.722574,0.95004849 73.405184,15.403941 82.345004,51.023481 67.87977,77.98181 51.179084,109.10627 10.84968,119.06908 -19.573528,102.39853 -54.142311,83.456388 -65.129213,38.40963 -46.249772,4.5236957 -25.069893,-33.491202 24.699511,-45.502992 62.046599,-24.412072 103.50895,-0.99715356 116.54623,53.498779 93.24189,94.305836"
       transform="rotate(-90,190.95124,33.666088)" />
  </g>
</svg>
