<?xml version="1.0" encoding="UTF-8" standalone="no"?>
<svg
   version="1.1"
   x="0"
   y="0"
   width="566.929"
   height="566.929"
   viewBox="0, 0, 566.929, 566.929"
   id="svg4488"
   sodipodi:docname="RedLabyrinth.svg"
   inkscape:version="1.2.2 (b0a8486541, 2022-12-01)"
   xmlns:inkscape="http://www.inkscape.org/namespaces/inkscape"
   xmlns:sodipodi="http://sodipodi.sourceforge.net/DTD/sodipodi-0.dtd"
   xmlns="http://www.w3.org/2000/svg"
   xmlns:svg="http://www.w3.org/2000/svg"
   xmlns:rdf="http://www.w3.org/1999/02/22-rdf-syntax-ns#"
   xmlns:cc="http://creativecommons.org/ns#"
   xmlns:dc="http://purl.org/dc/elements/1.1/">
  <metadata
     id="metadata4494">
    <rdf:RDF>
      <cc:Work
         rdf:about="">
        <dc:format>image/svg+xml</dc:format>
        <dc:type
           rdf:resource="http://purl.org/dc/dcmitype/StillImage" />
      </cc:Work>
    </rdf:RDF>
  </metadata>
  <defs
     id="defs4492" />
  <sodipodi:namedview
     pagecolor="#ffffff"
     bordercolor="#666666"
     borderopacity="1"
     objecttolerance="10"
     gridtolerance="10"
     guidetolerance="10"
     inkscape:pageopacity="0"
     inkscape:pageshadow="2"
     inkscape:window-width="1920"
     inkscape:window-height="1011"
     id="namedview4490"
     showgrid="false"
     inkscape:snap-global="false"
     inkscape:zoom="0.59197438"
     inkscape:cx="114.86984"
     inkscape:cy="386.84107"
     inkscape:window-x="0"
     inkscape:window-y="0"
     inkscape:window-maximized="1"
     inkscape:current-layer="svg4488"
     inkscape:showpageshadow="2"
     inkscape:pagecheckerboard="0"
     inkscape:deskcolor="#d1d1d1" />
  <g
     id="Layer_6"
     style="fill:#ff0000">
    <path
       d="m 283.69531,27.746094 c -141.008,0 -255.72656,114.718566 -255.72656,255.726566 0,78.513 35.585,148.85778 91.45898,195.80078 l 6.80274,-8.10352 c -0.983,-0.813 -1.97155,-1.62103 -2.93555,-2.45703 l 7.08399,-7.84375 c 13.86,11.992 29.1605,22.35214 45.5625,30.86914 l 4.89453,-9.39453 C 145.39094,463.94475 115.4305,436.3943 94.1875,402.7793 l 9.06836,-5.42969 c 7.037,11.107 15.08723,21.50647 23.99023,31.10547 l 7.8086,-7.10938 c -10.787,-11.622 -20.21822,-24.51415 -28.07422,-38.41015 L 88.75,393.71289 c -4.986,-8.784 -9.367435,-17.94702 -13.148438,-27.41601 l -9.816406,3.91406 c 12.732,31.873 32.230699,60.33659 56.761724,83.55859 l -7.08204,7.8418 C 68.12786,416.89233 38.539062,353.57666 38.539062,283.47266 c 0,-0.892 0.0242,-1.77897 0.0332,-2.66797 l 21.142578,0.63867 c 0.169,-18.845 2.659515,-37.14714 7.228515,-54.61914 l 10.167969,2.89648 c -1.545,5.93 -2.80789,11.96794 -3.83789,18.08594 l 10.289062,1.80078 c 0.717074,-5.11849 1.320055,-10.1343 3.193359,-14.93945 5.756612,-24.93654 15.393901,-44.96462 29.421871,-65.46289 l -8.82812,-5.73828 c -11.678009,17.096 -20.97936,35.93479 -27.31836,56.09179 l -10.173828,-2.89648 c 0.374,-1.196 0.790453,-2.37264 1.189453,-3.55664 L 61.001953,209.8418 c -6.391,19.273 -10.38125,39.62928 -11.53125,60.73828 l -10.572265,-0.3418 c 6.899,-129.049 114.058872,-231.921874 244.796872,-231.921874 5.378,0 10.71382,0.19411 16.00781,0.53711 l -0.94531,10.533203 c -4.982,-0.318 -10.0005,-0.498047 -15.0625,-0.498047 -41.578,0 -80.64787,10.897219 -114.54687,29.949219 l 5.25976,9.154297 c 18.552,-10.411001 38.72302,-18.266407 60.04102,-23.066407 l 4.36914,20.691407 10.14648,-2.029297 c 10.617,-1.839 21.518,-2.8225 32.625,-2.9375 l 0.0254,-10.574219 c -11.825,0.114 -23.4286,1.169625 -34.72461,3.140625 l -2.07421,-10.371094 c 12.631,-2.22 25.6219,-3.386719 38.8789,-3.386719 8.811,0 17.49497,0.532297 26.04297,1.529297 l 1.12695,-10.501953 c -0.522,-0.068 -1.04831,-0.139266 -1.57031,-0.197266 l 0.94141,-10.529296 c 82.943,8.972 153.60503,59.485914 190.70703,130.253904 l -9.50586,4.63086 c -20.663,-39.297 -52.16242,-72.02828 -90.48242,-94.23828 l -5.28516,9.164062 c 5.636,3.257002 11.12455,6.731973 16.43555,10.458988 l -18.80664,25.5332 c -10.063,-7.005 -20.83902,-13.04769 -32.16602,-18.05469 l -4.25,9.66016 c 0.988,0.437 1.98094,0.87022 2.96094,1.32422 l -4.6543,9.49219 c -21.769,-10.05 -45.98614,-15.66993 -71.49414,-15.66993 -2.652,0 -5.28615,0.0841 -7.91015,0.20508 l 0.42382,10.57422 c 2.483,-0.121 4.97433,-0.20703 7.48633,-0.20703 42.12,0 80.47458,16.3407 109.14258,42.9707 l 7.28125,-7.68945 c -10.66,-9.911 -22.56261,-18.49994 -35.47461,-25.46094 l 4.6543,-9.49219 c 23.633,12.677 44.12453,30.44764 60.06055,51.80664 l 8.48242,-6.27929 c -10.323,-13.846 -22.43111,-26.28521 -36.03711,-36.90821 l 6.27343,-8.50781 c 3.55501,2.766 6.99733,5.6633 10.36133,8.6543 l 6.97461,-7.92383 c -3.59,-3.198 -7.27231,-6.28923 -11.07031,-9.24023 l 6.26953,-8.50782 c 27.978,21.678 50.68644,49.83836 65.89844,82.19336 l 19.13476,-9.02148 c 14.86,31.589 23.1836,66.83419 23.1836,103.99219 0,49.351 -14.67028,95.33384 -39.86328,133.83984 l -8.71094,-5.98242 c 24.02,-36.802 38.00195,-80.72442 38.00195,-127.85742 0,-5.287 -0.19687,-10.52657 -0.54687,-15.72657 l -10.55664,0.80079 c 0.335,4.935 0.53515,9.90778 0.53515,14.92578 0,11.789 -0.9185,23.36492 -2.6875,34.66992 l -20.89062,-3.51953 c -1.227,7.931 -2.87695,15.72317 -5.00195,23.32617 l -10.10352,-3.11914 c 4.538,-16.355 6.97266,-33.57542 6.97266,-51.35742 0,-13.332 -1.38729,-26.34497 -3.98829,-38.91797 l -10.35351,2.17187 c 2.455,11.874 3.77344,24.1571 3.77344,36.7461 0,20.24 -3.38444,39.69267 -9.52344,57.88867 l 20.12109,6.69336 c -1.803,5.351 -3.84431,10.58751 -6.07031,15.72851 l 9.69922,4.19922 c 5.691,-13.144 10.12389,-26.95564 13.08789,-41.30664 l 10.40625,1.87305 c -6.691,32.636 -20.52667,62.69314 -39.76367,88.49414 l 8.46875,6.27539 c 0.815,-1.089 1.65131,-2.15967 2.44531,-3.26367 l 8.71484,5.98242 c -17.962,25.037 -40.51487,46.56284 -66.42187,63.33984 l -5.36328,-9.11914 c 0.451,-0.296 0.88992,-0.60506 1.33594,-0.91406 l -5.85547,-8.78906 c -6.288,4.15 -12.7841,8.00853 -19.4961,11.51953 l -4.68164,-9.47852 c 4.537,-2.38 8.9735,-4.91847 13.3125,-7.60547 l 8.84571,-5.79296 c 1.28199,-0.886 2.54073,-1.7989 3.80273,-2.71289 l -6.14258,-8.64063 c -1.142,0.838 -2.26845,1.69591 -3.43945,2.50391 l -5.77539,-8.85157 c 5.288,-3.675 10.35051,-7.64817 15.22851,-11.82617 l -13.56836,-16.11133 c 7.764,-6.64 14.87389,-14.00211 21.33789,-21.91211 l -8.17578,-6.67578 c -9.016,11.008 -19.43353,20.82514 -31.01953,29.11914 l -5.9414,-8.73828 c 25.34,-18.202 44.75076,-44.10723 54.88476,-74.24023 l -10.04883,-3.30664 c -12.556,37.353 -40.48992,67.69239 -76.29492,83.40039 l -8.36719,-19.43946 c -14.536,6.40601 -30.57603,10 -47.45703,10 -9.764,0 -19.24808,-1.21312 -28.33008,-3.45312 l 2.8086,-10.00391 2.49219,-10.48828 c -16.633,-4.065 -31.59235,-12.4154 -43.65235,-23.8164 l -7.22656,7.67773 c 10.889,10.29 23.88273,18.37345 38.30273,23.43945 l -2.86132,10.18946 c -46.399,-16.003 -79.83594,-60.07589 -79.83594,-111.83789 0,-32.498 13.17784,-61.97396 34.46484,-83.37696 l 7.28125,7.67188 c -17.888,18.086 -29.40889,42.45698 -30.96289,69.45898 l 10.56445,0.63672 c 1.576,-27.489 14.62383,-51.93172 34.42383,-68.63672 l -13.51758,-16.27929 c 14.673,-12.345 32.38522,-21.16833 51.82422,-25.23633 l -2.13476,-10.33789 c -0.758,0.156 -1.52239,0.30361 -2.27539,0.47461 l -0.0293,-0.0996 -9.76172,2.69336 -0.45312,0.0352 0.0352,0.11914 c -43.368,13.739 -76.84958,49.8488 -86.89258,94.7168 l -10.45507,-1.69531 c 1.333,-6.086 3.0884,-12.01149 5.1914,-17.77149 l -9.92187,-3.58398 c -3.668,10.07 -6.29147,20.62942 -7.73047,31.5664 l 10.43555,1.47071 c 0.053,-0.426 0.0992,-0.85139 0.1582,-1.27539 l 10.4375,1.69531 c -0.805,5.807 -1.25195,11.72791 -1.25195,17.75391 0,21.151 5.15556,41.10832 14.22656,58.73632 l -9.1211,5.37305 c -0.26,-0.499 -0.497,-1.00676 -0.75,-1.50976 l -9.46093,4.75195 c 9.883,19.574 23.94528,36.67559 40.98828,50.18359 l 6.41601,-8.37695 c -12.598,-10.011 -23.45365,-22.12661 -31.97265,-35.84961 l 9.10937,-5.36914 c 22.77,36.54 63.3015,60.92383 109.4375,60.92383 14.702,0 28.8271,-2.50846 41.9961,-7.06446 l 3.99218,9.80469 c -12.027,4.216 -28.85404,7.30022 -41.99804,7.69922 l 0.26172,10.88477 c 33.118,-1.96 53.67004,-9.73869 74.24804,-22.42969 l 11.21289,17.91601 c 4.52,-2.789 8.90486,-5.77779 13.13086,-8.96679 l 6.68946,8.18554 c -16.876,12.787 -36.07002,22.62874 -56.79102,28.92774 l 3.17383,10.0918 c 15.838,-4.822 30.8352,-11.57671 44.6582,-20.09571 l 5.7793,8.84961 c -8.267,5.109 -16.94455,9.5971 -25.93555,13.4961 l 4.16211,9.75976 c 1.597,-0.69 3.18281,-1.39109 4.75781,-2.12109 l 4.68164,9.47851 c -13.459,6.251 -27.65357,11.17211 -42.39257,14.66211 l 2.41406,10.25782 c 22.963,-5.44 44.66051,-14.20052 64.47851,-25.85352 l 5.35547,9.10742 c -36.375,21.392 -78.712,33.6836 -123.875,33.6836 -8.831,0 -17.55153,-0.48049 -26.14453,-1.39649 l 2.60352,-21.03906 c -17.859,-1.871 -35.11047,-5.80463 -51.48047,-11.64063 l 7.26953,-19.87304 c -21.908,-7.787 -42.10508,-19.21775 -59.83008,-33.59375 l 6.82227,-8.07032 c 2.342,1.895 4.75345,3.70543 7.18945,5.48243 l 6.13672,-8.59961 c -33.009,-24.289 -57.52,-59.43839 -68.25,-100.15039 l -10.257814,2.6621 c 1.912629,7.2614 4.213454,14.36716 6.923824,21.26954 2.89189,6.94623 5.98797,13.96912 8.64355,19.8466 10.948,23.198 22.7502,35.61415 41.5752,52.62215 l -14.02734,15.73828 c 18.049,16.294 38.86459,29.57819 61.68359,38.99219 l -8.21875,19.4746 c 16.973,6.983 35.39508,12.22174 54.08008,15.05274 l -1.34961,10.48437 C 208.88633,520.12897 173.5913,505.512 143.2793,484.25 l -6.10547,8.6582 c 41.525,29.135 92.05448,46.27149 146.52148,46.27149 140.996,0 255.70508,-114.70903 255.70508,-255.70703 0,-141.008 -114.70908,-255.726566 -255.70508,-255.726566 z m 47.36914,26.050781 -2.11914,10.306641 c 13.714,2.821 26.98997,6.875799 39.66797,12.091796 l -4.23828,9.689454 c -20.001,-8.199 -41.51319,-13.427688 -63.99219,-15.179688 l -2.07031,21.019531 c -4.826,-0.364 -9.69919,-0.550781 -14.61719,-0.550781 -56.194,0 -106.83239,24.232012 -142.02539,62.791012 l -8.05859,-6.85156 c 23.645,-26.002 53.95759,-45.80778 88.18359,-56.80078 l -3.23047,-10.064453 c -21.03,6.753 -40.66959,16.640488 -58.30859,29.187503 l -6.31836,-8.47071 c 1.301,-0.927 2.61745,-1.833418 3.93945,-2.732418 l -5.9082,-8.740234 C 115.34575,114.44319 86.129984,149.47822 68.333984,190.57422 l 9.681641,4.20703 c 14.93,-34.497 38.275985,-64.53447 67.458985,-87.48047 l 6.32031,8.47461 c -12.206,9.621 -23.30528,20.57389 -33.1543,32.58789 l 16.12305,13.60352 c -8.838,10.813 -16.5017,22.61345 -22.8457,35.18945 l 9.46875,4.73633 c 24.366,-48.271 69.59973,-84.2873 123.80273,-96.0293 l 2.01172,10.38086 c -18.292,3.989 -35.47703,10.9472 -51.08203,20.2832 l 5.47461,9.05274 c 0.714,-0.433 1.42444,-0.86816 2.14844,-1.28516 l 5.09765,9.25781 c -12.117,7.009 -23.15689,15.67321 -32.83789,25.65821 l 7.73243,7.20312 c 15.92797,-16.411 35.8281,-28.94356 58.1621,-35.97656 l 0.0977,0.33789 c 13.48677,-4.41669 28.75572,-6.61434 41.70117,-6.74609 29.29967,0 56.50565,9.09488 78.96289,24.60156 l 6.62891,-8.28516 c -24.28857,-16.93974 -53.7982,-26.88867 -85.5918,-26.88867 -23.486,0 -45.72511,5.43952 -65.53711,15.10352 l -5.09961,-9.26172 c 15.149,-7.45 31.63819,-12.56492 48.99219,-14.91992 l -1.35547,-10.49219 c -1.037,0.132 -2.07451,0.25701 -3.10351,0.41601 l -2.01368,-10.38085 c 9.16702,-1.42903 18.55619,-2.17774 28.11719,-2.17774 20.388,0 39.97516,3.41858 58.28516,9.64258 l 3.40039,-10.02539 c -11.723,-3.98501 -23.94178,-6.890924 -36.55078,-8.544924 l 1.10351,-10.519531 c 27.089,3.514 52.50402,12.409765 75.16602,25.550785 l 5.2832,-9.105472 c -5.354,-3.122 -10.906,-6.102516 -16.5,-8.728516 l 4.1875,-9.0625 -0.0332,-0.02734 4.67773,-10.005859 c -16.29,-7.615 -33.59239,-13.404094 -51.65039,-17.121094 z m 107.79102,83.324215 -7.68359,7.25 c 18.942,20.08 33.87092,43.99375 43.41992,70.46875 l -10.04297,3.30469 c -4.538,-12.53 -10.37306,-24.44233 -17.28906,-35.61133 l -8.99219,5.59766 c 6.478,10.46 11.96828,21.59336 16.23828,33.31836 l -10.04297,3.30469 c -7.63,-20.82 -19.24294,-39.70843 -33.83594,-55.85743 l -15.85547,13.86329 c -4.39463,-4.84319 -9.10429,-9.39471 -14.08984,-13.63086 l -6.96094,7.99218 c 10.72,9.09791 20.05936,19.77727 27.63868,31.6836 l -9.07032,5.42187 c -12.497,-19.535 -30.11931,-35.47612 -50.94531,-45.95312 l -4.74609,9.44922 c 22.065,11.087 40.18398,28.87959 51.70898,50.68359 l 18.4082,-10.48437 c 10.459,19.555 16.41602,41.86778 16.41602,65.55078 0,2.307 -0.0677,4.5989 -0.17774,6.8789 l -21.11523,-1.31054 c -1.759,37.72 -21.26675,70.86329 -50.34375,91.27929 l -5.75976,-8.86523 c 12.144,-8.587 22.40776,-19.64058 30.13476,-32.39258 l -17.875,-11.19922 c 7.792,-12.989 12.28125,-28.17262 12.28125,-44.39062 0,-7.777 -1.06977,-15.30166 -3.00977,-22.47266 l -10.1914,2.74609 c 1.697,6.294 2.63086,12.90057 2.63086,19.72657 0,41.914 -34.09577,76.01172 -76.00977,76.01172 -5.831,0 -11.50389,-0.68265 -16.96289,-1.93165 l 2.95313,-10.16406 c 4.516,0.989 9.20076,1.52539 14.00976,1.52539 13.225,0 25.53394,-3.95651 35.83594,-10.72851 l -5.83398,-8.86328 c -8.631,5.677 -18.92096,9.02148 -30.00196,9.02148 -11.259,0 -21.73608,-3.41295 -30.45508,-9.25195 l 6.53907,-8.35742 c 6.905,4.446 15.11201,7.03906 23.91601,7.03906 20.11,0 37.12377,-13.47619 42.50977,-31.86719 l 10.53125,1.60352 c -2.241,8.454 -6.48549,16.08087 -12.14649,22.42187 l 7.94336,7.03125 c 10.318,-11.57 16.60352,-26.80623 16.60352,-43.49023 0,-9.73 -2.15261,-18.96253 -5.97461,-27.26954 l 27.41601,-16.13281 c 6.55402,13.073 10.27149,27.80935 10.27149,43.40235 0,12.663 -2.46358,24.75442 -6.89258,35.85742 l 9.82227,3.93945 c 4.924,-12.316 7.63867,-25.74387 7.63867,-39.79687 0,-2.748 -0.10269,-6.49832 -0.30469,-9.19532 l 20.91406,-1.9414 c -1.055,-12.191 -3.79357,-23.90153 -8.01757,-34.89453 l -9.98047,3.70312 c 2.75,7.118 4.89375,14.53428 6.21875,22.23828 l -10.48047,1.43555 c -6.57,-37.459 -33.56592,-68.88756 -68.16992,-82.35156 l 7.27148,-19.63868 c -14.062,-5.293 -29.27583,-8.22656 -45.17383,-8.22656 -3.914,0 -7.78633,0.18706 -11.61133,0.53906 l 1.00391,10.52735 c 3.495,-0.321 7.03042,-0.49609 10.60742,-0.49609 11.121,0 21.87589,1.57598 32.08789,4.45898 l -3.1914,10.08008 c -9.205,-2.566 -18.88549,-3.96875 -28.89649,-3.96875 -20.816,0 -40.25604,5.95756 -56.74804,16.22656 l 5.5625,8.98828 c 14.875,-9.263 32.40754,-14.64258 51.18554,-14.64258 34.208,0 64.31586,17.78608 81.63086,44.58008 l -9.11133,5.36328 c -15.468,-23.679 -42.18553,-39.37304 -72.51953,-39.37304 -47.744,0 -86.58984,38.84389 -86.58984,86.58789 0,16.85 4.85675,32.57953 13.21875,45.89453 l -8.48438,6.34179 c -8.701,-13.582 -14.11032,-29.4579 -15.11132,-46.5039 l -10.54102,0.59375 c 1.342,23.02 9.93792,44.10934 23.54492,61.02734 l 16.74024,-12.85937 c 6.16652,7.59124 13.59394,14.11594 21.95312,19.26758 l 4.75195,-9.50391 c -21.30941,-13.47789 -35.5,-37.23283 -35.5,-64.25781 0,-24.941 12.07555,-47.11343 30.68555,-60.98243 l 12.4336,17.19727 8.25195,-5.21875 c 3.241,-1.637 6.67614,-2.93716 10.24414,-3.91016 l -2.7168,-10.20898 c -4.702,1.273 -9.20578,3.03058 -13.42578,5.26758 l -5.89062,-8.83985 c 10.826,-5.937 23.24154,-9.32226 36.43554,-9.32226 26.457,0 49.78925,13.59906 63.40625,34.16406 l -9.11133,5.36133 c -0.615,-0.915 -1.26864,-1.80159 -1.93164,-2.68359 l -8.41601,6.37109 c 6.857,9.156 10.92187,20.51169 10.92187,32.80469 0,1.212 -0.053,2.41051 -0.12695,3.60351 l -10.49609,-1.59765 c 0.032,-0.665 0.0527,-1.33286 0.0527,-2.00586 0,-1.308 -0.0724,-2.599 -0.19141,-3.875 l -10.52734,0.91211 c 0.086,0.977 0.15039,1.96289 0.15039,2.96289 0,18.6 -15.13047,33.73046 -33.73047,33.73046 -18.6,0 -33.73242,-15.13046 -33.73242,-33.73046 0,-18.599 15.13242,-33.73243 33.73242,-33.73243 13.487,0 25.11291,7.97546 30.50391,19.43946 l 9.53906,-4.52539 c -5.726,-12.132 -16.76095,-21.28057 -30.12695,-24.35157 l 0.9375,-10.62109 c 8.548,1.723 16.36542,5.45334 22.98242,10.65234 l 6.53516,-8.28906 c -10.956,-8.621 -24.7033,-13.837 -39.6543,-14 l -1.31445,21.14063 c -24.153,0.323 -43.70508,20.05911 -43.70508,44.28711 0,11.822 4.66528,22.56948 12.23828,30.52148 l -6.57227,8.40039 c -10.021,-9.948 -16.23828,-23.71987 -16.23828,-38.92187 0,-13.246 4.72722,-25.40163 12.57422,-34.89063 l -8.11133,-6.73047 c -9.37,11.321 -15.03515,25.8111 -15.03515,41.6211 0,18.578 7.79548,35.35825 20.27148,47.28125 l 8.19922,6.67578 c 3.99,2.742 8.29942,5.04437 12.85742,6.85937 l -2.95898,10.19336 c -1.10066,-0.42111 -2.18419,-0.87556 -3.25977,-1.3457 l -3.20703,10.15234 c 10.3206,4.35648 21.65599,6.76563 33.54492,6.76563 27.739,0 52.4516,-13.12656 68.3086,-33.47657 l 8.84765,5.83594 c -17.769,23.206 -45.73725,38.20899 -77.15625,38.20899 -2.616,0 -5.19481,-0.1464 -7.75781,-0.35743 l -0.87695,10.51368 c 2.851,0.242 5.72176,0.41601 8.63476,0.41601 19.308,0 37.43114,-5.1304 53.11914,-14.0664 l 11.12696,17.95507 c 34.02,-19.656 58.25971,-54.38453 63.51171,-95.01953 l 10.55079,0.81446 c -0.381,3.014 -0.87822,5.98945 -1.44922,8.93945 l 10.39062,2.17187 c 1.786,-9.238 2.75,-18.76557 2.75,-28.51757 0,-34.933 -12.03286,-67.09219 -32.13086,-92.61719 l 8.00782,-6.90235 c 21.694,27.38302 34.69726,61.95154 34.69726,99.51954 0,33.385 -10.28487,64.38193 -27.79687,90.08593 l 8.71679,6.01953 c 0.67,-0.97998 1.35491,-1.95126 2.00391,-2.94726 l 9.08594,5.41602 c -6.789,10.46998 -14.642,20.18539 -23.375,29.02539 l 15.07226,14.84179 c -3.772,3.818 -7.71815,7.45317 -11.78515,10.95117 l 6.94531,7.98829 c 19.598,-16.95 36.11272,-37.37661 48.51172,-60.34961 -0.044,-0.021 -0.0868,-0.0337 -0.13282,-0.0547 -2.97699,-1.502 -5.87842,-3.15911 -8.85742,-4.66211 -0.133,-0.068 -0.23942,-0.16219 -0.35742,-0.24219 -7.533,13.941 -16.64066,26.91125 -27.09766,38.65625 l -7.70507,-7.23047 c 13.199,-14.873 24.09179,-31.82086 32.21679,-50.25586 l -9.68359,-4.17773 c -2.489,5.644 -5.23367,11.15156 -8.26367,16.47656 l -9.08008,-5.41406 c 14.091,-24.858 22.15039,-53.56695 22.15039,-84.12695 0,-16.906 -2.71769,-33.67143 -7.30469,-49.10743 l 30.45118,-9.08984 c 5.60899,18.56 8.56445,37.83127 8.56445,58.19727 0,4.472 -0.2011,8.89401 -0.4961,13.29101 l 10.54493,0.80469 c 0.309,-4.663 0.51953,-9.3537 0.51953,-14.0957 0,-10.962 -0.82964,-21.73291 -2.43164,-32.25391 l 20.80273,-3.57813 c -2.383,-15.43298 -6.27567,-30.37292 -11.51367,-44.66992 l -9.92578,3.57813 c 3.84,10.456 6.9335,21.26776 9.1875,32.38476 l -10.4043,1.87696 c -8.073,-39.652 -27.19956,-75.31746 -53.97656,-103.68946 z m -255.44727,7.77344 c -42.903,31.128 -70.87109,81.63713 -70.87109,138.57813 0,6.279 0.35067,12.47507 1.01367,18.58007 l -10.45508,1.61524 c -0.738,-6.633 -1.1289,-13.36831 -1.1289,-20.19531 0,-23.674 4.59018,-46.28307 12.86718,-67.03907 l -9.82031,-3.86718 c -1.55211,0.71452 -8.169164,26.56779 -8.660154,27.81836 l -2.38086,11.04492 0.103516,0.0176 c -1.753,10.419 -2.681641,21.11539 -2.681641,32.02539 0,11.023 0.948188,21.8257 2.742188,32.3457 l 20.878901,-3.29688 c 8.50702,49.545 38.37954,91.88058 79.76954,117.14258 l -10.41211,18.33789 c 29.012,17.585 62.99126,27.75586 99.32226,27.75586 9.818,0 19.46563,-0.74292 28.89063,-2.16992 l 1.89062,10.4082 c -10.042,1.533 -20.31925,2.33203 -30.78125,2.33203 -17.461,0 -34.40308,-2.24792 -50.58008,-6.41992 l -2.78906,10.19141 c 15.328,3.966 31.30681,6.29761 47.75781,6.72461 l -0.0703,21.125 c 1.889,0.05 3.78064,0.0898 5.68164,0.0898 11.578,0 22.95113,-0.868 34.07813,-2.5 l -1.56055,-10.47656 c -9.023,1.322 -18.20897,2.1378 -27.54297,2.3418 l -0.0156,-10.57032 c 21.737,-0.497 42.66684,-4.27203 62.33984,-10.83203 l -3.35156,-10.05273 c -7.41,2.481 -14.99777,4.56287 -22.75977,6.17187 l -4.18164,-20.77343 c -11.954,2.491 -24.32386,3.83984 -37.00586,3.83984 -30.614,0 -59.47945,-7.62088 -84.81445,-21.04688 l 5.09766,-9.25781 c 23.822,12.591 50.94879,19.73438 79.71679,19.73438 25.775,0 50.21816,-5.75967 72.16016,-16.01367 l -4.43555,-9.59961 c -20.593,9.633 -43.53061,15.04297 -67.72461,15.04297 -3.184,0 -6.33951,-0.12174 -9.47851,-0.30274 l 1.20117,-21.09961 c -25.163,-1.484 -48.53672,-9.68945 -68.38672,-22.81445 l -5.83398,8.80273 c 18.639,12.321 40.16575,20.61113 63.34375,23.57813 l -0.85157,10.54492 c -76.867,-9.599 -137.01929,-73.69683 -140.40429,-152.29883 l 10.6914,-0.52148 c 0.76,17.149 4.32939,33.79828 10.40039,48.98828 l 9.81446,-3.875 c -6.392,-15.962 -9.93946,-33.35717 -9.93946,-51.57617 0,-1.974 0.0653,-3.93472 0.15625,-5.88672 l -10.50586,-0.60352 c -0.046,0.879 -0.11567,2.27516 -0.13867,3.16016 l -10.56445,-0.25586 c 0.549,-24.8 6.73575,-48.21897 17.34375,-69.04297 l 9.33789,4.94922 c -0.748,1.473 -1.4563,2.9697 -2.1543,4.4707 l 9.59571,4.40039 c 4.871,-10.418 10.99787,-20.13379 18.17187,-28.96679 l -8.10156,-6.79688 c -4.537,5.565 -8.70402,11.44391 -12.41602,17.62891 l -9.34179,-4.95118 c 11.235,-18.86897 26.27146,-35.17539 43.98046,-48.02539 z m -87.054684,95.49024 1.019531,-4.73633 c -0.886329,3.82738 -1.146282,5.05916 -1.019531,4.73633 z M 283.47852,260.3125 c -12.772,0 -23.16211,10.38916 -23.16211,23.16016 0,2.086 0.28268,4.10534 0.80468,6.02734 l 10.19727,-2.80664 c -0.277,-1.029 -0.43164,-2.1057 -0.43164,-3.2207 0,-6.942 5.6488,-12.58985 12.5918,-12.58985 6.941,0 12.58593,5.64785 12.58593,12.58985 0,6.943 -5.64493,12.58984 -12.58593,12.58984 -0.767,0 -1.51124,-0.0838 -2.24024,-0.21875 l -1.77539,10.39844 c 1.308,0.231 2.64163,0.39062 4.01563,0.39062 12.772,0 23.1582,-10.38915 23.1582,-23.16015 0,-12.771 -10.3862,-23.16016 -23.1582,-23.16016 z m -212.529301,6.11328 c -0.454,5.625 -0.697266,11.30788 -0.697266,17.04688 0,3.971 0.119985,7.91307 0.333985,11.83007 l -10.53711,0.85938 c -0.035,-0.643 -0.05898,-1.28764 -0.08398,-1.93164 l -10.542969,0.62695 c 0.93,19.327 4.220406,38.03805 9.566406,55.87305 l 10.138672,-2.96289 c -3.975,-13.224 -6.785094,-26.94344 -8.246094,-41.06446 l 10.542969,-0.85937 c 2.137,20.423 7.174734,39.99178 14.677734,58.30078 l 4.251954,9.67774 c 0.06,0.13 0.1265,0.25481 0.1875,0.38281 l 8.998046,-4.21289 c -1.556981,-6.17745 -4.04463,-11.91203 -6.686324,-17.66867 -9.624,-23.588 -12.028519,-41.84186 -12.028519,-68.85086 0,-5.431 0.24564,-10.804 0.68164,-16.125 z m 212.447261,12.67578 c -2.374,0 -4.29687,1.92488 -4.29687,4.29688 0,2.375 1.92287,4.29687 4.29687,4.29687 2.374,0 4.29493,-1.92187 4.29493,-4.29687 0,-2.372 -1.92093,-4.29688 -4.29493,-4.29688 z m 167.40821,153.04883 c -8.662,9.736 -18.15524,18.71417 -28.36524,26.82617 l 6.55469,8.27735 c 10.705,-8.51 20.64566,-17.93539 29.72266,-28.15039 z"
       id="path4485"
       inkscape:connector-curvature="0"
       sodipodi:nodetypes="ssccccccccccccccccscccccccccccccccsccscccccccccsccccccccccccccsccsccccccccccccccsccsccsccccsccsccccccccccccccccccccccccccccccccscccccccscccccccccccccccccccccsccccccccsccccccccccccccccccccsccccccccccccccccccccsssccccccscccccccccccccccccccccccccccccsccccccscccccccccccccccccccccccccccccsccccccsccssccsccsccsccccsccsccsccccccccsccsccsccsccssccccccccscccccccsccccsccsccssssccccccccsccsccsccccccsccsccsccccccsccsccccccccccccccccccsccsccsccccccccsccscccccsccccsccsccccsccccccccsccsccsccccccccccscccccccccccccccccssccssssccssscscccccccccccccsccsssssccccc"
       style="fill:#ff0000" />
  </g>
</svg>
